# xmcd
#
# Track frame offsets: 
#        150
#        23897
#        42612
#        68477
#        89800
#        114710
#        131410
#        158603
#        175323
#        196725
#        221308
#        249134
#
# Disc length: 3576 seconds
#
# Revision: 3
# Processed by: cddbd v1.5.2PL0 Copyright (c) Steve Scherf et al.
# Submitted via: ExactAudioCopy v0.99pb4
#
DISCID=9d0df60c
DTITLE=Беломорканал - Ночь перед расстрелом
DYEAR=1999
DGENRE=Шансон
TTITLE0=Жиганчики донские
TTITLE1=Не будите
TTITLE2=Разведенные мосты
TTITLE3=Разговор
TTITLE4=Отец
TTITLE5=Чифирок и папироса
TTITLE6=Пристань вечной тайги
TTITLE7=Сирота Казанская
TTITLE8=Притча
TTITLE9=Брат мой Саня
TTITLE10=Ночь перед расстрелом
TTITLE11=Мама всегда ждет
EXTD=
EXTT0=
EXTT1=
EXTT2=
EXTT3=
EXTT4=
EXTT5=
EXTT6=
EXTT7=
EXTT8=
EXTT9=
EXTT10=
EXTT11=
PLAYORDER=
